<svg version="1.1" id="Layer_1" xmlns="http://www.w3.org/2000/svg" xmlns:xlink="http://www.w3.org/1999/xlink" x="0px" y="0px"
	 width="100%" viewBox="0 0 1020 384" enable-background="new 0 0 1020 384" xml:space="preserve">
<path fill="#FFFFFF" opacity="1.000000" stroke="none" 
	d="
M780.000000,385.000000 
	C520.000000,385.000000 260.500000,385.000000 1.000000,385.000000 
	C1.000000,257.000000 1.000000,129.000000 1.000000,1.000000 
	C341.000000,1.000000 681.000000,1.000000 1021.000000,1.000000 
	C1021.000000,129.000000 1021.000000,257.000000 1021.000000,385.000000 
	C940.833313,385.000000 860.666687,385.000000 780.000000,385.000000 
M144.436447,46.063278 
	C123.610252,34.237717 102.829758,22.329758 81.887337,10.713745 
	C79.787392,9.548977 76.432449,9.321675 74.124435,10.077557 
	C61.492992,14.214398 48.996784,18.766642 36.474495,23.233301 
	C29.954037,25.559126 23.475513,28.002520 17.110167,30.344204 
	C17.039179,31.527533 16.965012,32.187122 16.964954,32.846718 
	C16.959120,100.313393 17.000704,167.780151 16.845549,235.246475 
	C16.837006,238.961349 18.900188,240.096634 21.324892,241.472748 
	C67.475227,267.664886 113.731766,293.673096 159.670822,320.230591 
	C166.334839,324.083069 171.852356,324.431458 178.031509,320.872284 
	C179.292664,320.145813 180.852615,318.266907 180.722366,317.091248 
	C180.214752,312.509460 182.144257,310.503510 186.436966,309.656128 
	C189.178604,309.114929 191.766937,307.807373 194.432114,306.866394 
	C200.459839,304.738312 206.492569,302.624512 212.807327,300.405029 
	C212.967667,303.375366 213.089691,305.636108 213.238617,308.395020 
	C217.688919,306.800842 221.721664,305.356201 225.779327,303.902649 
	C225.857834,303.075867 225.973389,302.426697 225.973465,301.777527 
	C225.982651,233.144760 225.952087,164.511948 226.082672,95.879433 
	C226.088745,92.695168 224.567123,91.572105 222.308762,90.291756 
	C196.553009,75.689873 170.825058,61.038982 144.436447,46.063278 
M478.212433,222.196335 
	C481.694702,226.835938 485.310974,231.384674 488.562103,236.180939 
	C489.345398,237.336472 489.590240,239.685822 488.941498,240.850555 
	C484.232117,249.305954 472.354126,251.649551 464.629395,245.766602 
	C459.014771,241.490616 455.878510,235.367538 455.189545,228.708618 
	C454.170227,218.855972 453.669617,208.831757 454.266266,198.960266 
	C454.980927,187.137085 459.382477,176.300873 466.790649,166.874741 
	C471.135468,161.346451 470.945374,154.830170 466.217377,149.797348 
	C463.231110,146.618576 459.925446,145.980789 456.589050,149.027191 
	C453.896179,151.485977 451.085999,153.999100 449.071503,156.989151 
	C432.713409,181.268799 427.248230,207.776672 434.382996,236.305191 
	C438.114105,251.224243 446.781799,262.789062 462.394409,266.678528 
	C477.625031,270.472839 491.836090,267.660919 502.180328,254.915436 
	C506.373444,249.748932 510.030090,247.576996 516.883545,248.813507 
	C525.426636,250.354813 534.019531,248.807022 541.640442,243.804077 
	C542.790344,245.814453 543.573181,247.270813 544.436035,248.678070 
	C554.045959,264.351196 570.276367,271.169983 588.106140,266.971954 
	C597.660034,264.722504 604.747437,258.979340 610.476624,251.207764 
	C611.504211,249.813812 613.590271,248.000229 614.901367,248.205750 
	C625.088562,249.802628 635.061768,250.024200 644.654541,245.249832 
	C645.125183,250.450226 645.145569,255.297684 646.094849,259.955872 
	C647.198303,265.370911 653.493652,268.694214 659.954102,267.958344 
	C664.795288,267.406921 666.976318,264.302826 666.991333,257.725983 
	C667.024475,243.227753 666.730713,228.721298 667.152527,214.235153 
	C667.318359,208.539230 668.407776,202.680801 670.190430,197.262863 
	C673.383667,187.557968 678.090698,178.535797 685.842224,171.496674 
	C689.715515,167.979355 694.075867,165.294800 699.369141,167.783279 
	C704.501099,170.195999 705.679016,175.371735 704.747742,180.168747 
	C703.535828,186.411346 702.146667,193.171814 698.721008,198.297333 
	C694.082825,205.237000 687.575439,210.972321 681.599670,216.954330 
	C678.562195,219.995056 677.560913,223.358719 678.212646,227.371063 
	C679.671570,236.352631 682.650391,244.700592 688.055115,252.175140 
	C699.152771,267.522736 717.004089,272.521729 731.872192,263.946808 
	C747.576843,254.889481 755.476746,239.985291 760.874512,223.526154 
	C762.550903,218.414276 757.823486,211.263397 752.919983,210.119125 
	C748.861389,209.172012 745.879089,212.190384 744.213196,218.945465 
	C744.093811,219.429413 744.086121,219.942520 743.951233,220.420807 
	C741.235107,230.047836 737.153931,238.887146 729.066833,245.268814 
	C721.999512,250.845764 713.512512,250.530090 707.591003,243.771500 
	C704.489746,240.231918 702.579590,235.613373 700.321289,231.380829 
	C698.206604,227.417572 699.366577,224.796143 703.010315,221.755280 
	C717.560364,209.612442 727.055115,194.751190 726.029663,174.789078 
	C724.844482,151.720856 704.276184,140.131943 685.674622,152.494232 
	C680.500916,155.932587 676.387146,160.975586 671.832214,165.329529 
	C670.398682,166.699738 669.112000,168.223526 667.328979,170.137741 
	C667.121216,168.733307 667.030151,168.404739 667.030029,168.076157 
	C667.020081,140.412750 666.436401,112.731964 667.263184,85.093391 
	C667.665771,71.634796 655.028198,67.008186 645.744141,70.010666 
	C643.040649,70.884972 642.650085,72.214722 643.339539,74.880714 
	C644.282837,78.528236 645.009705,82.340508 645.056824,86.091873 
	C645.245056,101.087761 645.134277,116.087410 645.134155,131.085663 
	C645.133911,157.415939 645.221008,183.746613 645.100891,210.076340 
	C645.027832,226.088684 633.436951,235.999878 619.486572,232.345612 
	C620.510986,225.472412 621.870361,218.636597 622.490540,211.734375 
	C623.957825,195.401642 622.628662,179.429367 614.306519,164.803055 
	C607.386353,152.640915 594.271301,149.595734 585.284851,158.966949 
	C580.938782,163.499100 577.488586,170.220108 576.504395,176.406921 
	C573.000610,198.433060 577.371887,218.784576 593.203186,235.558289 
	C595.248108,237.724930 595.256042,239.293655 593.649780,241.565140 
	C586.659607,251.450089 572.555725,251.605133 565.790894,241.556000 
	C563.604858,238.308624 561.979736,234.544083 560.782166,230.797424 
	C557.420654,220.280670 557.832458,209.452179 559.173096,198.683746 
	C560.635681,186.935089 564.459473,176.037415 571.977966,166.659683 
	C576.158508,161.445358 575.908447,154.955124 571.369263,149.935715 
	C568.155518,146.381973 564.877136,145.908829 561.401062,149.247055 
	C557.823120,152.683105 554.163879,156.288910 551.583618,160.465103 
	C540.637207,178.181961 535.506470,197.490707 536.758423,218.418503 
	C536.889099,220.602310 536.429749,223.200577 535.296082,225.013870 
	C530.865662,232.100494 522.934692,234.688705 514.483887,232.292847 
	C515.506897,225.415970 516.892273,218.577881 517.477478,211.671997 
	C518.845093,195.535126 517.804871,179.650436 509.550171,165.179306 
	C500.792023,149.825546 486.532928,150.925827 478.048431,161.031250 
	C475.166290,164.464035 473.210632,169.099915 472.084595,173.506256 
	C467.825684,190.171799 470.904388,206.127350 478.212433,222.196335 
M888.502014,253.946976 
	C894.718872,263.738403 903.310059,268.849731 915.217773,268.093323 
	C927.182007,267.333374 933.622498,258.798279 941.003479,249.489365 
	C941.003479,258.387848 940.326355,266.058014 941.178833,273.554260 
	C942.190552,282.451202 938.374634,287.874207 931.887756,293.320435 
	C913.902466,308.420532 902.950195,326.978760 905.938477,351.657837 
	C907.466309,364.275513 917.319275,375.925049 928.633484,377.873657 
	C941.152649,380.029755 952.912659,373.939270 958.193848,360.928497 
	C960.999207,354.017303 962.363770,346.170532 962.682861,338.673859 
	C963.348511,323.036987 962.781982,307.350586 963.011963,291.688812 
	C963.043762,289.522644 964.145508,286.711487 965.735168,285.331390 
	C981.116150,271.978302 992.820312,256.037567 1000.318909,237.100052 
	C1002.208313,232.328537 1003.969116,227.395935 1004.868774,222.372543 
	C1005.838745,216.956497 1001.060547,210.588242 996.246338,209.945023 
	C990.080872,209.121277 989.584595,214.245941 988.084106,218.143021 
	C985.933777,223.727600 984.211914,229.493347 981.797791,234.956696 
	C977.307739,245.118393 971.102966,254.191666 962.890259,263.254517 
	C962.890259,260.292480 962.890320,258.492584 962.890259,256.692657 
	C962.890015,226.195648 962.886353,195.698624 962.891357,165.201614 
	C962.893188,153.821335 955.359619,150.684753 947.239502,150.411377 
	C941.399780,150.214767 939.475403,153.175156 940.549805,159.125107 
	C940.901672,161.073914 940.977478,163.093124 940.982727,165.080658 
	C941.018799,178.745895 941.159729,192.413574 940.957703,206.075912 
	C940.768494,218.868698 936.981323,230.758469 929.674377,241.172501 
	C927.300781,244.555481 923.142456,247.785385 919.225342,248.749893 
	C911.810242,250.575699 905.797607,244.793732 905.228760,235.037155 
	C904.622437,224.638672 904.207458,213.978470 905.808716,203.761627 
	C908.109802,189.078964 912.281860,174.687210 915.718018,160.186157 
	C916.739502,155.875381 915.278320,152.444168 911.446289,152.233002 
	C907.359070,152.007782 903.116272,152.309067 899.146851,153.248413 
	C897.266113,153.693466 894.952271,155.882355 894.384399,157.751953 
	C888.284851,177.832458 883.379883,198.214249 883.030701,219.315125 
	C882.873474,228.813400 879.405640,236.316040 872.908020,242.893585 
	C867.481445,248.386795 861.256531,250.814941 853.922119,247.802994 
	C846.914612,244.925339 845.436646,238.386429 845.045776,231.733063 
	C844.430786,221.263000 845.780212,211.580505 850.564209,201.529556 
	C863.335571,174.697250 872.017883,146.365356 874.493225,116.520409 
	C875.568359,103.557236 875.272034,90.572899 870.634521,78.115295 
	C867.538330,69.798027 861.706970,64.437782 852.878357,63.134377 
	C843.342773,61.726604 836.055969,65.888702 830.642212,73.565956 
	C825.273438,81.179245 823.114197,89.832268 823.100464,99.002045 
	C823.036194,141.831100 823.039001,184.660324 823.110657,227.489334 
	C823.118164,231.959961 823.472839,236.468628 824.123718,240.892365 
	C826.104431,254.355469 835.431396,264.176453 848.798950,267.151947 
	C862.216553,270.138489 873.311157,265.688110 883.002991,256.537933 
	C884.401611,255.217484 886.321838,254.449524 888.502014,253.946976 
M392.587128,62.843601 
	C376.828064,53.727169 359.608551,51.746174 341.904877,52.995594 
	C315.941437,54.827930 294.516296,65.423073 279.329956,87.090904 
	C265.540131,106.766182 261.979584,129.111237 264.359253,152.329941 
	C265.991119,168.251785 271.398987,183.142258 283.276825,194.816803 
	C287.053009,198.528381 290.435242,198.865860 293.313660,194.579742 
	C296.394012,189.992935 298.457306,184.662582 300.473602,179.466293 
	C300.948975,178.241211 299.815613,175.117065 298.811554,174.799866 
	C292.336884,172.754395 291.002106,167.029007 289.116638,161.865448 
	C284.468414,149.135834 284.842316,135.957108 287.176788,122.936050 
	C290.643250,103.601257 300.546814,88.580841 319.008179,80.442848 
	C336.429932,72.763092 354.478577,71.628967 372.460541,78.056282 
	C386.002625,82.896652 395.373993,92.495270 398.020721,106.933517 
	C399.371613,114.302681 399.705078,122.204765 398.630493,129.594315 
	C396.832123,141.960663 391.062164,152.601410 380.377075,159.949081 
	C372.650787,165.262085 364.022675,168.177979 354.744904,168.772385 
	C350.714355,169.030609 349.264252,170.798782 348.645416,174.451233 
	C347.176483,183.120590 351.183228,189.182083 359.651825,190.618607 
	C360.796997,190.812836 361.972626,190.822266 363.123047,190.992294 
	C375.417999,192.809525 385.664612,197.995132 389.997192,210.332565 
	C394.175415,222.230301 393.679993,234.079819 384.836731,244.121521 
	C378.006042,251.877792 368.919037,254.334717 358.996979,252.647400 
	C349.837616,251.089798 343.526031,245.397522 341.294952,236.369278 
	C339.595093,229.490738 338.300201,222.316849 338.237915,215.261902 
	C337.930695,180.443832 337.737396,145.615784 338.306763,110.804367 
	C338.479706,100.230301 329.939758,94.334633 319.533081,96.052185 
	C315.662781,96.690956 314.485657,99.172417 314.986908,102.971115 
	C315.527893,107.071259 315.897919,111.225014 315.918304,115.357475 
	C316.012848,134.516754 315.824371,153.678009 315.998322,172.836166 
	C316.172058,191.969574 316.333252,211.113678 317.134918,230.226456 
	C317.558380,240.321777 320.818604,249.819366 327.313232,257.883362 
	C334.769745,267.141724 344.824402,270.935150 356.349579,272.409912 
	C394.979858,277.352997 421.871735,246.200974 413.299622,209.821915 
	C409.762390,194.810287 400.408325,184.610901 384.875092,179.438614 
	C407.326630,166.771805 420.067291,148.511841 421.466949,123.091957 
	C422.845886,98.048637 415.145325,77.256874 392.587128,62.843601 
M771.677063,239.766220 
	C764.714722,243.290634 761.779297,248.597794 763.025452,255.408157 
	C763.989258,260.675537 768.928284,265.307648 774.316467,265.997559 
	C780.957092,266.847778 786.819031,263.666290 789.207092,257.637451 
	C791.122070,252.802917 790.545410,248.061142 787.262817,244.009842 
	C783.419128,239.266022 778.252991,238.093277 771.677063,239.766220 
z"/>
<path fill="#36195B" opacity="1.000000" stroke="none" 
	d="
M144.763062,46.232224 
	C170.825058,61.038982 196.553009,75.689873 222.308762,90.291756 
	C224.567123,91.572105 226.088745,92.695168 226.082672,95.879433 
	C225.952087,164.511948 225.982651,233.144760 225.973465,301.777527 
	C225.973389,302.426697 225.857834,303.075867 225.779327,303.902649 
	C221.721664,305.356201 217.688919,306.800842 213.238617,308.395020 
	C213.089691,305.636108 212.967667,303.375366 212.807327,300.405029 
	C206.492569,302.624512 200.459839,304.738312 194.432114,306.866394 
	C191.766937,307.807373 189.178604,309.114929 186.436966,309.656128 
	C182.144257,310.503510 180.214752,312.509460 180.722366,317.091248 
	C180.852615,318.266907 179.292664,320.145813 178.031509,320.872284 
	C171.852356,324.431458 166.334839,324.083069 159.670822,320.230591 
	C113.731766,293.673096 67.475227,267.664886 21.324892,241.472748 
	C18.900188,240.096634 16.837006,238.961349 16.845549,235.246475 
	C17.000704,167.780151 16.959120,100.313393 16.964954,32.846718 
	C16.965012,32.187122 17.039179,31.527533 17.110167,30.344204 
	C23.475513,28.002520 29.954037,25.559126 36.474495,23.233301 
	C48.996784,18.766642 61.492992,14.214398 74.124435,10.077557 
	C76.432449,9.321675 79.787392,9.548977 81.887337,10.713745 
	C102.829758,22.329758 123.610252,34.237717 144.763062,46.232224 
M96.121201,33.400196 
	C90.761116,30.370560 85.426025,27.295137 80.022278,24.345499 
	C78.769173,23.661491 77.044792,22.697027 75.939697,23.066216 
	C66.888779,26.089918 57.933167,29.398861 48.213932,32.884655 
	C50.252872,34.207008 51.443874,35.068764 52.714417,35.790497 
	C93.937325,59.207207 135.147873,82.645889 176.435776,105.947525 
	C179.695999,107.787483 180.997391,109.700722 180.986877,113.621956 
	C180.827988,172.929550 180.876633,232.237717 180.876648,291.545746 
	C180.876648,293.531494 180.876648,295.517273 180.876648,298.018951 
	C191.865128,294.073761 202.412476,290.286987 212.844070,286.541748 
	C212.918396,285.386169 212.997833,284.727173 212.997894,284.068176 
	C213.004257,223.927170 212.973907,163.786087 213.088669,103.645294 
	C213.094910,100.372528 211.654343,99.076447 209.120255,97.642212 
	C171.625946,76.421295 134.189850,55.097523 96.121201,33.400196 
z"/>
<path fill="#BC86E9" opacity="1.000000" stroke="none" 
	d="
M478.047089,221.862747 
	C470.904388,206.127350 467.825684,190.171799 472.084595,173.506256 
	C473.210632,169.099915 475.166290,164.464035 478.048431,161.031250 
	C486.532928,150.925827 500.792023,149.825546 509.550171,165.179306 
	C517.804871,179.650436 518.845093,195.535126 517.477478,211.671997 
	C516.892273,218.577881 515.506897,225.415970 514.483887,232.292847 
	C522.934692,234.688705 530.865662,232.100494 535.296082,225.013870 
	C536.429749,223.200577 536.889099,220.602310 536.758423,218.418503 
	C535.506470,197.490707 540.637207,178.181961 551.583618,160.465103 
	C554.163879,156.288910 557.823120,152.683105 561.401062,149.247055 
	C564.877136,145.908829 568.155518,146.381973 571.369263,149.935715 
	C575.908447,154.955124 576.158508,161.445358 571.977966,166.659683 
	C564.459473,176.037415 560.635681,186.935089 559.173096,198.683746 
	C557.832458,209.452179 557.420654,220.280670 560.782166,230.797424 
	C561.979736,234.544083 563.604858,238.308624 565.790894,241.556000 
	C572.555725,251.605133 586.659607,251.450089 593.649780,241.565140 
	C595.256042,239.293655 595.248108,237.724930 593.203186,235.558289 
	C577.371887,218.784576 573.000610,198.433060 576.504395,176.406921 
	C577.488586,170.220108 580.938782,163.499100 585.284851,158.966949 
	C594.271301,149.595734 607.386353,152.640915 614.306519,164.803055 
	C622.628662,179.429367 623.957825,195.401642 622.490540,211.734375 
	C621.870361,218.636597 620.510986,225.472412 619.486572,232.345612 
	C633.436951,235.999878 645.027832,226.088684 645.100891,210.076340 
	C645.221008,183.746613 645.133911,157.415939 645.134155,131.085663 
	C645.134277,116.087410 645.245056,101.087761 645.056824,86.091873 
	C645.009705,82.340508 644.282837,78.528236 643.339539,74.880714 
	C642.650085,72.214722 643.040649,70.884972 645.744141,70.010666 
	C655.028198,67.008186 667.665771,71.634796 667.263184,85.093391 
	C666.436401,112.731964 667.020081,140.412750 667.030029,168.076157 
	C667.030151,168.404739 667.121216,168.733307 667.328979,170.137741 
	C669.112000,168.223526 670.398682,166.699738 671.832214,165.329529 
	C676.387146,160.975586 680.500916,155.932587 685.674622,152.494232 
	C704.276184,140.131943 724.844482,151.720856 726.029663,174.789078 
	C727.055115,194.751190 717.560364,209.612442 703.010315,221.755280 
	C699.366577,224.796143 698.206604,227.417572 700.321289,231.380829 
	C702.579590,235.613373 704.489746,240.231918 707.591003,243.771500 
	C713.512512,250.530090 721.999512,250.845764 729.066833,245.268814 
	C737.153931,238.887146 741.235107,230.047836 743.951233,220.420807 
	C744.086121,219.942520 744.093811,219.429413 744.213196,218.945465 
	C745.879089,212.190384 748.861389,209.172012 752.919983,210.119125 
	C757.823486,211.263397 762.550903,218.414276 760.874512,223.526154 
	C755.476746,239.985291 747.576843,254.889481 731.872192,263.946808 
	C717.004089,272.521729 699.152771,267.522736 688.055115,252.175140 
	C682.650391,244.700592 679.671570,236.352631 678.212646,227.371063 
	C677.560913,223.358719 678.562195,219.995056 681.599670,216.954330 
	C687.575439,210.972321 694.082825,205.237000 698.721008,198.297333 
	C702.146667,193.171814 703.535828,186.411346 704.747742,180.168747 
	C705.679016,175.371735 704.501099,170.195999 699.369141,167.783279 
	C694.075867,165.294800 689.715515,167.979355 685.842224,171.496674 
	C678.090698,178.535797 673.383667,187.557968 670.190430,197.262863 
	C668.407776,202.680801 667.318359,208.539230 667.152527,214.235153 
	C666.730713,228.721298 667.024475,243.227753 666.991333,257.725983 
	C666.976318,264.302826 664.795288,267.406921 659.954102,267.958344 
	C653.493652,268.694214 647.198303,265.370911 646.094849,259.955872 
	C645.145569,255.297684 645.125183,250.450226 644.654541,245.249832 
	C635.061768,250.024200 625.088562,249.802628 614.901367,248.205750 
	C613.590271,248.000229 611.504211,249.813812 610.476624,251.207764 
	C604.747437,258.979340 597.660034,264.722504 588.106140,266.971954 
	C570.276367,271.169983 554.045959,264.351196 544.436035,248.678070 
	C543.573181,247.270813 542.790344,245.814453 541.640442,243.804077 
	C534.019531,248.807022 525.426636,250.354813 516.883545,248.813507 
	C510.030090,247.576996 506.373444,249.748932 502.180328,254.915436 
	C491.836090,267.660919 477.625031,270.472839 462.394409,266.678528 
	C446.781799,262.789062 438.114105,251.224243 434.382996,236.305191 
	C427.248230,207.776672 432.713409,181.268799 449.071503,156.989151 
	C451.085999,153.999100 453.896179,151.485977 456.589050,149.027191 
	C459.925446,145.980789 463.231110,146.618576 466.217377,149.797348 
	C470.945374,154.830170 471.135468,161.346451 466.790649,166.874741 
	C459.382477,176.300873 454.980927,187.137085 454.266266,198.960266 
	C453.669617,208.831757 454.170227,218.855972 455.189545,228.708618 
	C455.878510,235.367538 459.014771,241.490616 464.629395,245.766602 
	C472.354126,251.649551 484.232117,249.305954 488.941498,240.850555 
	C489.590240,239.685822 489.345398,237.336472 488.562103,236.180939 
	C485.310974,231.384674 481.694702,226.835938 478.047089,221.862747 
M485.171783,184.738770 
	C485.363586,196.826401 488.149658,208.046326 495.882263,217.668839 
	C496.453888,206.974319 496.630859,196.412170 496.352051,185.862045 
	C496.261963,182.452057 495.283264,178.958939 494.083496,175.737549 
	C493.606201,174.456009 491.449005,173.133865 490.016663,173.088379 
	C488.901978,173.052979 487.158478,174.764999 486.697845,176.057907 
	C485.820068,178.521545 485.658875,181.240479 485.171783,184.738770 
M596.250549,172.905518 
	C592.294373,172.464111 591.504517,175.317474 591.072693,178.175583 
	C589.234070,190.343613 591.385925,201.880569 597.017517,212.764908 
	C597.982483,214.629898 599.453125,216.233261 601.406311,218.955566 
	C601.406311,206.560150 601.789978,195.672394 601.205139,184.836899 
	C600.990723,180.864182 598.482117,177.015305 596.250549,172.905518 
z"/>
<path fill="#BC86E9" opacity="1.000000" stroke="none" 
	d="
M888.251343,253.686432 
	C886.321838,254.449524 884.401611,255.217484 883.002991,256.537933 
	C873.311157,265.688110 862.216553,270.138489 848.798950,267.151947 
	C835.431396,264.176453 826.104431,254.355469 824.123718,240.892365 
	C823.472839,236.468628 823.118164,231.959961 823.110657,227.489334 
	C823.039001,184.660324 823.036194,141.831100 823.100464,99.002045 
	C823.114197,89.832268 825.273438,81.179245 830.642212,73.565956 
	C836.055969,65.888702 843.342773,61.726604 852.878357,63.134377 
	C861.706970,64.437782 867.538330,69.798027 870.634521,78.115295 
	C875.272034,90.572899 875.568359,103.557236 874.493225,116.520409 
	C872.017883,146.365356 863.335571,174.697250 850.564209,201.529556 
	C845.780212,211.580505 844.430786,221.263000 845.045776,231.733063 
	C845.436646,238.386429 846.914612,244.925339 853.922119,247.802994 
	C861.256531,250.814941 867.481445,248.386795 872.908020,242.893585 
	C879.405640,236.316040 882.873474,228.813400 883.030701,219.315125 
	C883.379883,198.214249 888.284851,177.832458 894.384399,157.751953 
	C894.952271,155.882355 897.266113,153.693466 899.146851,153.248413 
	C903.116272,152.309067 907.359070,152.007782 911.446289,152.233002 
	C915.278320,152.444168 916.739502,155.875381 915.718018,160.186157 
	C912.281860,174.687210 908.109802,189.078964 905.808716,203.761627 
	C904.207458,213.978470 904.622437,224.638672 905.228760,235.037155 
	C905.797607,244.793732 911.810242,250.575699 919.225342,248.749893 
	C923.142456,247.785385 927.300781,244.555481 929.674377,241.172501 
	C936.981323,230.758469 940.768494,218.868698 940.957703,206.075912 
	C941.159729,192.413574 941.018799,178.745895 940.982727,165.080658 
	C940.977478,163.093124 940.901672,161.073914 940.549805,159.125107 
	C939.475403,153.175156 941.399780,150.214767 947.239502,150.411377 
	C955.359619,150.684753 962.893188,153.821335 962.891357,165.201614 
	C962.886353,195.698624 962.890015,226.195648 962.890259,256.692657 
	C962.890320,258.492584 962.890259,260.292480 962.890259,263.254517 
	C971.102966,254.191666 977.307739,245.118393 981.797791,234.956696 
	C984.211914,229.493347 985.933777,223.727600 988.084106,218.143021 
	C989.584595,214.245941 990.080872,209.121277 996.246338,209.945023 
	C1001.060547,210.588242 1005.838745,216.956497 1004.868774,222.372543 
	C1003.969116,227.395935 1002.208313,232.328537 1000.318909,237.100052 
	C992.820312,256.037567 981.116150,271.978302 965.735168,285.331390 
	C964.145508,286.711487 963.043762,289.522644 963.011963,291.688812 
	C962.781982,307.350586 963.348511,323.036987 962.682861,338.673859 
	C962.363770,346.170532 960.999207,354.017303 958.193848,360.928497 
	C952.912659,373.939270 941.152649,380.029755 928.633484,377.873657 
	C917.319275,375.925049 907.466309,364.275513 905.938477,351.657837 
	C902.950195,326.978760 913.902466,308.420532 931.887756,293.320435 
	C938.374634,287.874207 942.190552,282.451202 941.178833,273.554260 
	C940.326355,266.058014 941.003479,258.387848 941.003479,249.489365 
	C933.622498,258.798279 927.182007,267.333374 915.217773,268.093323 
	C903.310059,268.849731 894.718872,263.738403 888.251343,253.686432 
M856.295410,98.201225 
	C855.490234,94.149620 855.038330,89.977234 853.713928,86.103149 
	C853.148071,84.447906 850.762695,83.414696 849.204102,82.098839 
	C848.037781,83.564484 846.401733,84.867279 845.822998,86.536629 
	C845.084229,88.667328 844.984192,91.093643 844.979492,93.393303 
	C844.927307,118.861069 844.947083,144.328979 844.947327,169.796860 
	C844.947388,170.819626 844.947327,171.842392 844.947327,172.865143 
	C845.419250,172.918427 845.891174,172.971710 846.363098,173.025009 
	C848.083191,165.998581 850.092102,159.028107 851.466431,151.934692 
	C854.845825,134.491669 858.035034,117.001686 856.295410,98.201225 
M939.057434,308.681915 
	C928.086304,320.584534 924.184814,334.715179 926.093079,350.566467 
	C926.360352,352.786774 927.285889,355.100433 928.491089,357.000122 
	C931.187195,361.249908 936.040222,361.052979 938.449463,356.679138 
	C939.309570,355.117523 940.016052,353.247620 940.064819,351.498077 
	C940.463013,337.229187 940.692993,322.955536 940.908264,308.682343 
	C940.910522,308.533813 940.029724,308.371948 939.057434,308.681915 
z"/>
<path fill="#BC85E9" opacity="1.000000" stroke="none" 
	d="
M392.914917,63.005226 
	C415.145325,77.256874 422.845886,98.048637 421.466949,123.091957 
	C420.067291,148.511841 407.326630,166.771805 384.875092,179.438614 
	C400.408325,184.610901 409.762390,194.810287 413.299622,209.821915 
	C421.871735,246.200974 394.979858,277.352997 356.349579,272.409912 
	C344.824402,270.935150 334.769745,267.141724 327.313232,257.883362 
	C320.818604,249.819366 317.558380,240.321777 317.134918,230.226456 
	C316.333252,211.113678 316.172058,191.969574 315.998322,172.836166 
	C315.824371,153.678009 316.012848,134.516754 315.918304,115.357475 
	C315.897919,111.225014 315.527893,107.071259 314.986908,102.971115 
	C314.485657,99.172417 315.662781,96.690956 319.533081,96.052185 
	C329.939758,94.334633 338.479706,100.230301 338.306763,110.804367 
	C337.737396,145.615784 337.930695,180.443832 338.237915,215.261902 
	C338.300201,222.316849 339.595093,229.490738 341.294952,236.369278 
	C343.526031,245.397522 349.837616,251.089798 358.996979,252.647400 
	C368.919037,254.334717 378.006042,251.877792 384.836731,244.121521 
	C393.679993,234.079819 394.175415,222.230301 389.997192,210.332565 
	C385.664612,197.995132 375.417999,192.809525 363.123047,190.992294 
	C361.972626,190.822266 360.796997,190.812836 359.651825,190.618607 
	C351.183228,189.182083 347.176483,183.120590 348.645416,174.451233 
	C349.264252,170.798782 350.714355,169.030609 354.744904,168.772385 
	C364.022675,168.177979 372.650787,165.262085 380.377075,159.949081 
	C391.062164,152.601410 396.832123,141.960663 398.630493,129.594315 
	C399.705078,122.204765 399.371613,114.302681 398.020721,106.933517 
	C395.373993,92.495270 386.002625,82.896652 372.460541,78.056282 
	C354.478577,71.628967 336.429932,72.763092 319.008179,80.442848 
	C300.546814,88.580841 290.643250,103.601257 287.176788,122.936050 
	C284.842316,135.957108 284.468414,149.135834 289.116638,161.865448 
	C291.002106,167.029007 292.336884,172.754395 298.811554,174.799866 
	C299.815613,175.117065 300.948975,178.241211 300.473602,179.466293 
	C298.457306,184.662582 296.394012,189.992935 293.313660,194.579742 
	C290.435242,198.865860 287.053009,198.528381 283.276825,194.816803 
	C271.398987,183.142258 265.991119,168.251785 264.359253,152.329941 
	C261.979584,129.111237 265.540131,106.766182 279.329956,87.090904 
	C294.516296,65.423073 315.941437,54.827930 341.904877,52.995594 
	C359.608551,51.746174 376.828064,53.727169 392.914917,63.005226 
z"/>
<path fill="#BC86E9" opacity="1.000000" stroke="none" 
	d="
M772.048706,239.604248 
	C778.252991,238.093277 783.419128,239.266022 787.262817,244.009842 
	C790.545410,248.061142 791.122070,252.802917 789.207092,257.637451 
	C786.819031,263.666290 780.957092,266.847778 774.316467,265.997559 
	C768.928284,265.307648 763.989258,260.675537 763.025452,255.408157 
	C761.779297,248.597794 764.714722,243.290634 772.048706,239.604248 
z"/>
<path fill="#FEFDFE" opacity="1.000000" stroke="none" 
	d="
M96.430588,33.599152 
	C134.189850,55.097523 171.625946,76.421295 209.120255,97.642212 
	C211.654343,99.076447 213.094910,100.372528 213.088669,103.645294 
	C212.973907,163.786087 213.004257,223.927170 212.997894,284.068176 
	C212.997833,284.727173 212.918396,285.386169 212.844070,286.541748 
	C202.412476,290.286987 191.865128,294.073761 180.876648,298.018951 
	C180.876648,295.517273 180.876648,293.531494 180.876648,291.545746 
	C180.876633,232.237717 180.827988,172.929550 180.986877,113.621956 
	C180.997391,109.700722 179.695999,107.787483 176.435776,105.947525 
	C135.147873,82.645889 93.937325,59.207207 52.714417,35.790497 
	C51.443874,35.068764 50.252872,34.207008 48.213932,32.884655 
	C57.933167,29.398861 66.888779,26.089918 75.939697,23.066216 
	C77.044792,22.697027 78.769173,23.661491 80.022278,24.345499 
	C85.426025,27.295137 90.761116,30.370560 96.430588,33.599152 
z"/>
<path fill="#FCFAFE" opacity="1.000000" stroke="none" 
	d="
M485.185974,184.296082 
	C485.658875,181.240479 485.820068,178.521545 486.697845,176.057907 
	C487.158478,174.764999 488.901978,173.052979 490.016663,173.088379 
	C491.449005,173.133865 493.606201,174.456009 494.083496,175.737549 
	C495.283264,178.958939 496.261963,182.452057 496.352051,185.862045 
	C496.630859,196.412170 496.453888,206.974319 495.882263,217.668839 
	C488.149658,208.046326 485.363586,196.826401 485.185974,184.296082 
z"/>
<path fill="#FDFBFE" opacity="1.000000" stroke="none" 
	d="
M596.635254,173.007721 
	C598.482117,177.015305 600.990723,180.864182 601.205139,184.836899 
	C601.789978,195.672394 601.406311,206.560150 601.406311,218.955566 
	C599.453125,216.233261 597.982483,214.629898 597.017517,212.764908 
	C591.385925,201.880569 589.234070,190.343613 591.072693,178.175583 
	C591.504517,175.317474 592.294373,172.464111 596.635254,173.007721 
z"/>
<path fill="#FDFCFE" opacity="1.000000" stroke="none" 
	d="
M856.410156,98.639999 
	C858.035034,117.001686 854.845825,134.491669 851.466431,151.934692 
	C850.092102,159.028107 848.083191,165.998581 846.363098,173.025009 
	C845.891174,172.971710 845.419250,172.918427 844.947327,172.865143 
	C844.947327,171.842392 844.947388,170.819626 844.947327,169.796860 
	C844.947083,144.328979 844.927307,118.861069 844.979492,93.393303 
	C844.984192,91.093643 845.084229,88.667328 845.822998,86.536629 
	C846.401733,84.867279 848.037781,83.564484 849.204102,82.098831 
	C850.762695,83.414696 853.148071,84.447906 853.713928,86.103149 
	C855.038330,89.977234 855.490234,94.149620 856.410156,98.639999 
z"/>
<path fill="#FDFCFE" opacity="1.000000" stroke="none" 
	d="
M939.309265,308.449097 
	C940.029724,308.371948 940.910522,308.533813 940.908264,308.682343 
	C940.692993,322.955536 940.463013,337.229187 940.064819,351.498077 
	C940.016052,353.247620 939.309570,355.117523 938.449463,356.679138 
	C936.040222,361.052979 931.187195,361.249908 928.491089,357.000122 
	C927.285889,355.100433 926.360352,352.786774 926.093079,350.566467 
	C924.184814,334.715179 928.086304,320.584534 939.309265,308.449097 
z"/>
</svg>