<svg version="1.1" id="Layer_1" xmlns="http://www.w3.org/2000/svg" xmlns:xlink="http://www.w3.org/1999/xlink" x="0px" y="0px"
	 width="100%" viewBox="0 0 375 304" enable-background="new 0 0 375 304" xml:space="preserve">
<path fill="#FFFFFF" opacity="1.000000" stroke="none" 
	d="
M20.999996,305.000000 
	C14.336644,305.000000 7.673288,305.000000 1.007449,305.000000 
	C1.004966,203.720306 1.004966,102.440605 1.004966,1.080453 
	C125.884239,1.080453 250.768555,1.080453 376.000000,1.080453 
	C376.000000,61.353783 376.000000,121.708237 375.560730,182.531342 
	C370.631744,182.333588 366.156555,181.540039 361.649567,181.025177 
	C349.338348,179.618835 337.040405,177.694855 324.686829,177.176865 
	C312.808228,176.678802 300.687775,176.531097 289.001404,178.343323 
	C276.560974,180.272446 264.326233,184.145355 252.327316,188.146164 
	C237.631836,193.046082 224.047012,200.527908 211.735596,209.916702 
	C200.209213,218.706863 189.497604,228.563293 177.998474,237.391754 
	C154.544632,255.398468 129.360641,270.539886 101.845352,281.609985 
	C76.392632,291.850281 50.283585,299.658508 22.968418,303.074951 
	C22.243362,303.165649 21.653111,304.334137 20.999996,305.000000 
z"/>
<path fill="#000000" opacity="1.000000" stroke="none" 
	d="
M21.468655,305.000000 
	C21.653111,304.334137 22.243362,303.165649 22.968418,303.074951 
	C50.283585,299.658508 76.392632,291.850281 101.845352,281.609985 
	C129.360641,270.539886 154.544632,255.398468 177.998474,237.391754 
	C189.497604,228.563293 200.209213,218.706863 211.735596,209.916702 
	C224.047012,200.527908 237.631836,193.046082 252.327316,188.146164 
	C264.326233,184.145355 276.560974,180.272446 289.001404,178.343323 
	C300.687775,176.531097 312.808228,176.678802 324.686829,177.176865 
	C337.040405,177.694855 349.338348,179.618835 361.649567,181.025177 
	C366.156555,181.540039 370.631744,182.333588 375.560730,183.000000 
	C376.000000,223.629349 376.000000,264.258698 376.000000,305.000000 
	C257.979126,305.000000 139.958221,305.000000 21.468655,305.000000 
z"/>
</svg>